<?xml version="1.0" encoding="UTF-8"?>
<svg id="Calque_2" data-name="Calque 2" xmlns="http://www.w3.org/2000/svg" viewBox="0 0 1130.68 847.72">
  <defs>
    <style>
      .cls-1 {
        fill: #a855f7;
      }

      .cls-2 {
        fill: #fed112;
      }

      .cls-3 {
        font-family: NagodaRegular, Nagoda;
        font-size: 197.96px;
      }

      .cls-4 {
        font-family: Poppins-Light, Poppins;
        font-size: 67.87px;
        font-weight: 300;
        letter-spacing: .1em;
      }

      .cls-5 {
        fill: #f54f6d;
      }

      .cls-6 {
        letter-spacing: -.01em;
      }

      .cls-7 {
        fill: #6bfdc0;
      }
    </style>
  </defs>
  <g id="OBJECTS">
    <g>
      <g>
        <polygon class="cls-2" points="679.17 0 565.34 93.37 451.51 0 296.08 113.9 296.08 232.14 565.34 460.15 834.59 232.14 834.59 113.9 679.17 0"/>
        <g>
          <polygon class="cls-2" points="565.34 93.37 451.51 0 296.08 113.9 565.34 93.37"/>
          <polygon class="cls-7" points="296.08 232.14 296.08 113.9 565.34 93.37 296.08 232.14"/>
          <polygon class="cls-5" points="296.08 232.14 565.34 93.37 565.34 460.15 296.08 232.14"/>
          <g>
            <polygon class="cls-7" points="565.34 93.37 679.17 0 834.59 113.9 565.34 93.37"/>
            <polygon class="cls-1" points="834.59 232.14 834.59 113.9 565.34 93.37 834.59 232.14"/>
            <polygon class="cls-2" points="834.59 232.14 565.34 93.37 565.34 460.15 834.59 232.14"/>
          </g>
        </g>
      </g>
      <g>
        <text class="cls-3" transform="translate(78.46 684.66)"><tspan x="0" y="0">O</tspan><tspan class="cls-6" x="153.22" y="0">r</tspan><tspan x="238.94" y="0">éma N+</tspan></text>
        <text class="cls-4" transform="translate(0 809.44)"><tspan x="0" y="0">AU COEUR DE VOTRE BUSINESS</tspan></text>
      </g>
    </g>
  </g>
</svg>